<svg xmlns="http://www.w3.org/2000/svg" viewBox="0 0 32 32" width="32" height="32">
  <rect width="32" height="32" rx="10" fill="#246A60" />
  <path
    d="M16 6c-4.5 0-7 2.5-7 6 0 3.5 1.5 8 2.5 11.5 1 3.5 2.5 3.5 3.5 1 1-2.5 1-2.5 1-2.5s0 0 1 2.5c1 2.5 2.5 2.5 3.5-1C21.5 20 23 15.5 23 12c0-3.5-2.5-6-7-6z"
    fill="none"
    stroke="#FFFFFF"
    stroke-width="2"
    stroke-linecap="round"
    stroke-linejoin="round"
  />
  <path
    d="M13 11c1-1 3-1 4 0"
    fill="none"
    stroke="#E4EFEA"
    stroke-width="1.5"
    stroke-linecap="round"
  />
</svg>
